<svg width="60" height="40" viewBox="0 0 60 40" fill="none" xmlns="http://www.w3.org/2000/svg">
<path d="M18.8168 8.84448H41.1278V20.8886L40.0234 22.6142L41.1278 24.1499V31.1555H18.8168V19.8016L19.507 19.0078L18.8168 18.2486V8.84448Z" fill="#BEBEBE"/>
<path d="M23.1478 24.3914V20.8886H26.8567L27.2546 21.4073L27.6657 20.8886H41.1278V24.1499C41.1278 24.1499 40.7757 24.3879 40.3686 24.3914H32.9143L32.4657 23.8393V24.3914H30.9955V23.4489C30.9955 23.4489 30.7947 23.5804 30.3605 23.5804H29.8601V24.3914H27.6342L27.2368 23.8616L26.8334 24.3914L23.1478 24.3914ZM18.8168 18.2486L19.6531 16.2987H21.0995L21.5741 17.3909V16.2987H23.3721L23.6547 17.0881L23.9286 16.2987H31.9998V16.6956C31.9998 16.6956 32.4241 16.2987 33.1214 16.2987L35.7402 16.3079L36.2066 17.3858V16.2987H37.7112L38.1254 16.9179V16.2987H39.6438V19.8015H38.1254L37.7285 19.1803V19.8015H35.5178L35.2955 19.2493H34.7012L34.4825 19.8015H32.9833C32.3833 19.8015 31.9998 19.4128 31.9998 19.4128V19.8015H29.7393L29.2907 19.2494V19.8015H20.8853L20.6631 19.2494H20.0706L19.8501 19.8015H18.8168V18.2486Z" fill="#1F2023"/>
<path d="M19.9491 16.7306L18.821 19.3534H19.5555L19.7636 18.8282H20.9736L21.1807 19.3534H21.9313L20.8043 16.7306H19.9491ZM20.3665 17.341L20.7353 18.2588H19.9966L20.3665 17.341ZM22.0089 19.3529V16.7301L23.0526 16.734L23.6596 18.425L24.2521 16.7301H25.2874V19.3529H24.6317V17.4203L23.9367 19.3529H23.3616L22.6646 17.4203V19.3529H22.0089ZM25.7361 19.3529V16.7301H27.8757V17.3168H26.3987V17.7654H27.8412V18.3176H26.3987V18.7835H27.8757V19.3529H25.7361ZM28.2553 16.7306V19.3534H28.911V18.4216H29.1871L29.9733 19.3534H30.7746L29.9118 18.3871C30.2659 18.3572 30.6312 18.0533 30.6312 17.5815C30.6312 17.0296 30.198 16.7306 29.7145 16.7306H28.2553ZM28.911 17.3173H29.6605C29.8404 17.3173 29.9711 17.4579 29.9711 17.5933C29.9711 17.7676 29.8017 17.8694 29.6703 17.8694H28.911V17.3173ZM31.5683 19.3529H30.8988V16.7301H31.5683V19.3529ZM33.1558 19.3529H33.0113C32.3121 19.3529 31.8876 18.802 31.8876 18.0523C31.8876 17.284 32.3073 16.7301 33.1903 16.7301H33.915V17.3513H33.1638C32.8054 17.3513 32.5519 17.6311 32.5519 18.0588C32.5519 18.5667 32.8418 18.78 33.2593 18.78H33.4319L33.1558 19.3529ZM34.5826 16.7306L33.4546 19.3534H34.189L34.3971 18.8282H35.6071L35.8142 19.3534H36.5648L35.4378 16.7306H34.5826ZM35 17.341L35.3688 18.2588H34.6301L35 17.341ZM36.6414 19.3529V16.7301H37.475L38.5394 18.378V16.7301H39.1952V19.3529H38.3885L37.2971 17.6619V19.3529H36.6414ZM23.5964 23.9428V21.32H25.7361V21.9067H24.259V22.3553H25.7016V22.9075H24.259V23.3734H25.7361V23.9428H23.5964ZM34.0807 23.9428V21.32H36.2203V21.9067H34.7433V22.3553H36.1789V22.9075H34.7433V23.3734H36.2203V23.9428H34.0807ZM25.8191 23.9428L26.8609 22.6476L25.7943 21.32H26.6204L27.2556 22.1407L27.893 21.32H28.6867L27.6342 22.6314L28.6779 23.9428H27.8519L27.2351 23.1351L26.6334 23.9428H25.8191ZM28.7557 21.3205V23.9433H29.4287V23.115H30.1189C30.7029 23.115 31.1456 22.8052 31.1456 22.2026C31.1456 21.7035 30.7984 21.3205 30.2041 21.3205H28.7557ZM29.4287 21.9136H30.1556C30.3442 21.9136 30.4791 22.0293 30.4791 22.2156C30.4791 22.3906 30.3449 22.5175 30.1534 22.5175H29.4287V21.9136ZM31.4303 21.32V23.9428H32.086V23.011H32.3621L33.1483 23.9428H33.9496L33.0868 22.9765C33.4409 22.9466 33.8061 22.6427 33.8061 22.1709C33.8061 21.619 33.3729 21.32 32.8894 21.32H31.4303ZM32.086 21.9067H32.8355C33.0153 21.9067 33.1461 22.0473 33.1461 22.1828C33.1461 22.357 32.9767 22.4589 32.8452 22.4589H32.086V21.9067ZM36.524 23.9428V23.3734H37.8363C38.0305 23.3734 38.1145 23.2685 38.1145 23.1534C38.1145 23.0431 38.0307 22.9317 37.8363 22.9317H37.2433C36.7279 22.9317 36.4408 22.6176 36.4408 22.1461C36.4408 21.7256 36.7037 21.32 37.4696 21.32H38.7465L38.4704 21.9102H37.3661C37.155 21.9102 37.09 22.0209 37.09 22.1267C37.09 22.2354 37.1703 22.3553 37.3316 22.3553H37.9528C38.5274 22.3553 38.7767 22.6813 38.7767 23.1081C38.7767 23.567 38.4989 23.9428 37.9215 23.9428H36.524ZM38.9306 23.9428V23.3734H40.2428C40.437 23.3734 40.5211 23.2685 40.5211 23.1534C40.5211 23.0431 40.4373 22.9317 40.2428 22.9317H39.6499C39.1344 22.9317 38.8474 22.6176 38.8474 22.1461C38.8474 21.7256 39.1102 21.32 39.8762 21.32H41.1531L40.877 21.9102H39.7727C39.5616 21.9102 39.4966 22.0209 39.4966 22.1267C39.4966 22.2354 39.5769 22.3553 39.7381 22.3553H40.3593C40.9339 22.3553 41.1833 22.6813 41.1833 23.1081C41.1833 23.567 40.9054 23.9428 40.3281 23.9428H38.9306Z" fill="#BEBEBE"/>
</svg>
