<svg width="60" height="40" viewBox="0 0 60 40" fill="none" xmlns="http://www.w3.org/2000/svg">
<path d="M45.3207 32.5582C45.3207 31.9083 45.7264 31.3938 46.4025 31.3938C47.0245 31.3938 47.4572 31.8812 47.4572 32.5582C47.4572 33.2351 47.0245 33.7225 46.3754 33.7225C45.7264 33.7225 45.3207 33.208 45.3207 32.5582ZM48.1063 32.5582V29.4442H47.4031V31.2584C47.1327 30.9335 46.727 30.7439 46.2943 30.7439C45.3207 30.7439 44.5905 31.5021 44.5905 32.5582C44.5905 33.6142 45.3207 34.3724 46.2943 34.3724C46.727 34.3995 47.1327 34.2099 47.4031 33.8579V34.2641H48.1063V32.5582ZM38.3432 32.5582C38.3432 31.9083 38.7489 31.3938 39.425 31.3938C40.047 31.3938 40.4797 31.8812 40.4797 32.5582C40.4797 33.2351 40.0741 33.7225 39.425 33.7225C38.7489 33.7225 38.3432 33.208 38.3432 32.5582ZM41.1288 32.5582V30.8252H40.4257V31.2313C40.1552 30.9064 39.7495 30.7169 39.3168 30.7169C38.3432 30.7169 37.613 31.475 37.613 32.5311C37.613 33.5871 38.3432 34.3453 39.3168 34.3453C39.7495 34.3724 40.1552 34.1828 40.4257 33.8308V34.237H41.1288V32.5582ZM49.2962 34.0204V34.1016H49.3774C49.4044 34.1016 49.4044 34.1016 49.4314 34.1016L49.4585 34.0745C49.4585 34.0745 49.4585 34.0475 49.4314 34.0475C49.4314 34.0475 49.4044 34.0475 49.3774 34.0475L49.2962 34.0204ZM49.3774 33.9662C49.4044 33.9662 49.4314 33.9662 49.4585 33.9933C49.4855 34.0204 49.4855 34.0475 49.4855 34.0745C49.4855 34.1016 49.4855 34.1287 49.4585 34.1287C49.4314 34.1558 49.4044 34.1558 49.3774 34.1558L49.4855 34.2641H49.4044L49.2962 34.1558H49.2692V34.2641H49.188V33.9391L49.3774 33.9662ZM49.3503 34.3995C49.3774 34.3995 49.4314 34.3995 49.4585 34.3724C49.4855 34.3453 49.5126 34.3453 49.5396 34.3182C49.5667 34.2912 49.5937 34.2641 49.5937 34.237C49.6208 34.2099 49.6208 34.1558 49.6208 34.1287C49.6208 34.1016 49.6208 34.0475 49.5937 34.0204C49.5937 33.9933 49.5667 33.9662 49.5396 33.9391C49.5126 33.9121 49.4855 33.885 49.4585 33.885C49.4314 33.8579 49.4044 33.8579 49.3503 33.8579C49.3233 33.8579 49.2692 33.8579 49.2421 33.885C49.2151 33.885 49.188 33.9121 49.161 33.9391C49.134 33.9662 49.1069 33.9933 49.1069 34.0204C49.0799 34.0475 49.0799 34.1016 49.0799 34.1287C49.0799 34.1558 49.0799 34.2099 49.1069 34.237C49.1069 34.2641 49.134 34.2912 49.161 34.3182C49.188 34.3453 49.2151 34.3724 49.2421 34.3724C49.2962 34.3724 49.3233 34.3995 49.3503 34.3995ZM49.3503 33.7767C49.4044 33.7767 49.4314 33.7767 49.4855 33.8038C49.5396 33.8308 49.5667 33.8579 49.5937 33.885C49.6208 33.9121 49.6478 33.9662 49.6749 33.9933C49.7019 34.0475 49.7019 34.0745 49.7019 34.1287C49.7019 34.1828 49.7019 34.2099 49.6749 34.2641C49.6478 34.2912 49.6208 34.3453 49.5937 34.3724C49.5667 34.3995 49.5126 34.4266 49.4855 34.4536C49.4314 34.4807 49.4044 34.4807 49.3503 34.4807C49.2962 34.4807 49.2692 34.4807 49.2151 34.4536C49.161 34.4266 49.134 34.3995 49.1069 34.3724C49.0799 34.3453 49.0528 34.2912 49.0258 34.2641C48.9987 34.2099 48.9987 34.1828 48.9987 34.1287C48.9987 34.0745 48.9987 34.0475 49.0258 33.9933C49.0528 33.9662 49.0799 33.9121 49.1069 33.885C49.134 33.8579 49.188 33.8308 49.2151 33.8038C49.2692 33.7767 49.2962 33.7767 49.3503 33.7767ZM43.7792 30.7439C43.4005 30.7439 43.049 30.9335 42.8326 31.2584V30.8252H42.1565V34.2912H42.8596V32.3415C42.8596 31.7729 43.1301 31.3938 43.6169 31.3938C43.7792 31.3938 43.9414 31.4209 44.0767 31.475L44.32 30.8252C44.1578 30.771 43.9685 30.7439 43.7792 30.7439ZM17.1404 32.5582C17.1404 31.9083 17.5461 31.3938 18.2222 31.3938C18.8442 31.3938 19.2769 31.8812 19.2769 32.5582C19.2769 33.2351 18.8712 33.7225 18.2222 33.7225C17.5731 33.7225 17.1404 33.208 17.1404 32.5582ZM19.953 32.5582V30.8252H19.2499V31.2313C18.9794 30.9064 18.5738 30.7169 18.141 30.7169C17.1674 30.7169 16.4372 31.475 16.4372 32.5311C16.4372 33.5871 17.1674 34.3453 18.141 34.3453C18.5738 34.3724 18.9794 34.1828 19.2499 33.8308V34.237H19.953V32.5582ZM29.2833 31.3938C29.7701 31.3667 30.1758 31.7458 30.2029 32.2332V32.2603H28.3368C28.3638 31.7458 28.7965 31.3667 29.2833 31.3938ZM29.3104 30.7439C28.3097 30.7439 27.6066 31.475 27.6066 32.5582C27.6066 33.6684 28.3368 34.3724 29.3645 34.3724C29.8783 34.3995 30.3922 34.2099 30.7708 33.885L30.3922 33.3705C30.0947 33.5871 29.7431 33.7225 29.3915 33.7225C28.8506 33.7496 28.3909 33.3705 28.3368 32.8289H30.906C30.906 32.7477 30.9331 32.6394 30.9331 32.5311C30.906 31.475 30.2569 30.7439 29.3104 30.7439ZM34.1513 32.5582C34.0973 33.5059 34.8275 34.3182 35.774 34.3724C35.8281 34.3724 35.9092 34.3724 35.9633 34.3724C36.4231 34.3995 36.8558 34.237 37.2074 33.9662L36.8558 33.4247C36.5853 33.6142 36.2879 33.7225 35.9633 33.7225C35.3683 33.7225 34.8815 33.208 34.8815 32.6123C34.8815 32.5852 34.8815 32.5852 34.8815 32.5582C34.8275 31.9624 35.2872 31.4209 35.8822 31.3938C35.9092 31.3938 35.9092 31.3938 35.9363 31.3938C36.2608 31.3938 36.5853 31.5021 36.8287 31.6917L37.1803 31.1501C36.8287 30.8522 36.396 30.7169 35.9363 30.7439C34.9897 30.6898 34.1784 31.4209 34.1243 32.3686C34.1513 32.4228 34.1513 32.504 34.1513 32.5582ZM23.6852 31.0959C23.2524 30.8522 22.7656 30.7169 22.2788 30.7439C21.4134 30.7439 20.8725 31.1501 20.8725 31.8541C20.8725 32.4228 21.2512 32.7477 22.0354 32.856L22.387 32.9102C22.7927 32.9643 23.009 33.0997 23.009 33.3164C23.009 33.5871 22.7116 33.7496 22.1977 33.7496C21.792 33.7767 21.3864 33.6413 21.0618 33.3976L20.7103 33.9391C21.143 34.237 21.6839 34.3995 22.1977 34.3995C23.1983 34.3995 23.7392 33.9391 23.7392 33.2893C23.7392 32.6936 23.3336 32.3686 22.5493 32.2603L22.1977 32.2061C21.8732 32.152 21.5757 32.0708 21.5757 31.8271C21.5757 31.5834 21.8461 31.3938 22.2518 31.3938C22.6304 31.3938 23.009 31.5021 23.3336 31.6917L23.6852 31.0959ZM33.3671 30.7439C32.9884 30.7439 32.6369 30.9335 32.4205 31.2584V30.8252H31.7444V34.2912H32.4475V32.3415C32.4475 31.7729 32.718 31.3938 33.2048 31.3938C33.3671 31.3938 33.5293 31.4209 33.6645 31.475L33.9079 30.8252C33.7186 30.771 33.5564 30.7439 33.3671 30.7439ZM26.9575 30.8252H25.7135V29.7691H25.0103V30.8252H24.2801V31.448H25.0103V33.0726C25.0103 33.885 25.2808 34.3453 26.1732 34.3453C26.4978 34.3453 26.8223 34.2641 27.1198 34.0745L26.9034 33.4517C26.7141 33.5601 26.4707 33.6413 26.2273 33.6413C25.8487 33.6413 25.7135 33.3976 25.7135 33.0726V31.4209H26.9575V30.8252ZM15.707 34.2912V32.1249C15.707 31.3126 15.2202 30.771 14.3819 30.771C13.8951 30.7439 13.4353 30.9876 13.1649 31.3938C12.9215 30.9876 12.4888 30.771 12.029 30.771C11.6233 30.7439 11.2177 30.9335 11.0013 31.2855V30.8522H10.2982V34.3182H11.0013V32.3415C10.9472 31.8812 11.2718 31.475 11.7315 31.4209C11.7856 31.4209 11.8126 31.4209 11.8667 31.4209C12.3535 31.4209 12.651 31.7458 12.651 32.3415V34.3182H13.3542V32.3415C13.3001 31.8812 13.6517 31.475 14.1114 31.4209C14.1655 31.4209 14.1926 31.4209 14.2466 31.4209C14.7605 31.4209 15.0309 31.7458 15.0309 32.3415V34.3182L15.707 34.2912Z" fill="#BEBEBE"/>
<circle opacity="0.6" cx="35.1421" cy="14.7496" r="9.23026" fill="#BEBEBE"/>
<circle opacity="0.9" cx="23.1027" cy="14.7496" r="9.23026" fill="#BEBEBE"/>
</svg>
