<svg width="60" height="40" viewBox="0 0 60 40" fill="none" xmlns="http://www.w3.org/2000/svg">
<path d="M24.064 19.5422C24.064 16.6712 20.3462 14.3307 15.7597 14.3307C11.1737 14.3307 7.45595 16.6712 7.45595 19.5422C7.45595 19.6166 7.45502 19.8215 7.45502 19.8475C7.45502 22.8934 10.7046 25.3604 15.7588 25.3604C20.8443 25.3604 24.064 22.8943 24.064 19.848C24.064 19.7417 24.064 19.6803 24.064 19.5422Z" fill="#393B43"/>
<path d="M23.7465 19.5399C23.7465 22.2468 20.1717 24.4412 15.7618 24.4412C11.352 24.4412 7.77722 22.2468 7.77722 19.5399C7.77722 16.8326 11.352 14.6382 15.7618 14.6382C20.1717 14.6382 23.7465 16.8326 23.7465 19.5399Z" fill="#BEBEBE"/>
<path d="M13.1102 17.9934C13.106 18.001 13.0265 18.0804 13.0779 18.1436C13.2041 18.2983 13.5933 18.3866 13.9868 18.3019C14.2209 18.2517 14.5214 18.0226 14.8125 17.8006C15.1275 17.5603 15.4405 17.3199 15.755 17.224C16.0877 17.1222 16.3013 17.1661 16.4424 17.2069C16.5971 17.2509 16.7789 17.3486 17.0691 17.5576C17.6153 17.9517 19.8121 19.7919 20.1915 20.1098C20.4976 19.977 21.856 19.4161 23.7023 19.0256C23.542 18.0813 22.9429 17.2168 22.035 16.5093C20.7695 17.0195 19.2228 17.2859 17.7107 16.577C17.7027 16.5738 16.884 16.2021 16.077 16.2205C14.8765 16.247 14.3569 16.7456 13.8069 17.2729L13.1102 17.9934Z" fill="#F2F2F2"/>
<path d="M20.1025 20.3098C20.0768 20.2878 17.5193 18.1405 16.9403 17.7231C16.6048 17.4819 16.4184 17.42 16.2226 17.3962C16.1207 17.3832 15.9796 17.4016 15.8815 17.4276C15.6118 17.498 15.2595 17.724 14.9464 17.9621C14.6226 18.2096 14.317 18.4428 14.0338 18.5037C13.6716 18.5818 13.2296 18.4894 13.0277 18.3589C12.9459 18.306 12.8885 18.245 12.8609 18.1831C12.7861 18.0172 12.9235 17.8845 12.9464 17.8626L13.652 17.1299C13.7343 17.0514 13.8165 16.973 13.9011 16.8954C13.6735 16.9241 13.4628 16.9797 13.2581 17.0344C13.0025 17.1034 12.7567 17.1689 12.5076 17.1689C12.4039 17.1689 11.8473 17.0815 11.7417 17.0537C11.1029 16.886 10.5422 16.7228 9.70527 16.3475C8.70199 17.0644 8.03096 17.9603 7.83704 18.9472C7.98143 18.984 8.21367 19.0503 8.31134 19.0709C10.5814 19.5552 11.2885 20.0542 11.417 20.1587C11.5557 20.0103 11.7562 19.9166 11.98 19.9166C12.231 19.917 12.4576 20.0376 12.595 20.2251C12.7249 20.1264 12.9043 20.0426 13.1361 20.0426C13.2413 20.0426 13.3506 20.0614 13.4609 20.0973C13.717 20.1816 13.8492 20.3452 13.9179 20.4932C14.0039 20.456 14.1095 20.4286 14.2338 20.4291C14.3562 20.4291 14.4833 20.4555 14.6114 20.5089C15.0301 20.6811 15.095 21.0756 15.0572 21.3729C15.0871 21.3698 15.117 21.3684 15.1474 21.3684C15.6436 21.3689 16.0474 21.7558 16.0474 22.2325C16.0474 22.38 16.0081 22.5185 15.9394 22.64C16.0745 22.7131 16.4189 22.8777 16.7212 22.8409C16.9628 22.8118 17.0544 22.7324 17.0871 22.688C17.1095 22.6575 17.1333 22.6217 17.1114 22.5961L16.4707 21.9132C16.4707 21.9132 16.3651 21.8173 16.4002 21.7805C16.4361 21.7424 16.5016 21.7971 16.5474 21.8339C16.8735 22.0953 17.2717 22.4894 17.2717 22.4894C17.2782 22.4939 17.3048 22.5436 17.452 22.5692C17.5787 22.5907 17.803 22.5782 17.9581 22.4558C17.9974 22.4248 18.0366 22.3863 18.0693 22.3464C18.067 22.3482 18.0647 22.3513 18.0623 22.3522C18.2259 22.1509 18.0441 21.9473 18.0441 21.9473L17.296 21.1416C17.296 21.1416 17.1894 21.0465 17.2254 21.0084C17.2581 20.9752 17.3268 21.0254 17.374 21.0626C17.6104 21.2528 17.945 21.5747 18.2661 21.876C18.3282 21.9204 18.6105 22.0876 18.9833 21.8522C19.21 21.7097 19.2553 21.5348 19.2488 21.4025C19.2334 21.2276 19.0908 21.103 19.0908 21.103L18.0693 20.1175C18.0693 20.1175 17.9614 20.0291 17.9997 19.9843C18.031 19.9466 18.1011 20.0009 18.1469 20.0376C18.4721 20.2991 19.3534 21.0743 19.3534 21.0743C19.3661 21.0828 19.6703 21.2909 20.0464 21.0609C20.181 20.9783 20.267 20.8541 20.2745 20.7093C20.2871 20.4587 20.1025 20.3098 20.1025 20.3098Z" fill="#F2F2F2"/>
<path d="M15.1473 21.5594C14.9889 21.5576 14.8155 21.6477 14.7931 21.6347C14.7805 21.6267 14.8024 21.5657 14.8174 21.5303C14.8328 21.4953 15.0412 20.8931 14.5328 20.6837C14.1436 20.5236 13.9057 20.7039 13.8239 20.7855C13.8024 20.807 13.7931 20.8052 13.7903 20.7779C13.7828 20.6694 13.7319 20.3761 13.3964 20.2775C12.9165 20.1367 12.6076 20.4582 12.5291 20.5743C12.494 20.3116 12.2632 20.108 11.9795 20.1075C11.6716 20.1075 11.4221 20.3465 11.4221 20.642C11.4216 20.937 11.6711 21.1765 11.9791 21.1765C12.1286 21.1769 12.2641 21.1195 12.3641 21.0276C12.3674 21.0303 12.3688 21.0352 12.3669 21.0456C12.3436 21.1774 12.3006 21.658 12.8249 21.854C13.0352 21.932 13.2141 21.8737 13.3623 21.7742C13.4062 21.7441 13.4137 21.7567 13.4071 21.7966C13.3884 21.9203 13.4123 22.1849 13.7992 22.3351C14.0931 22.4499 14.2674 22.3324 14.3814 22.2315C14.431 22.188 14.4445 22.1948 14.4468 22.262C14.4609 22.6198 14.7707 22.9036 15.1464 22.9041C15.5338 22.9041 15.8478 22.6037 15.8478 22.2324C15.8482 21.8607 15.5347 21.5634 15.1473 21.5594Z" fill="#F2F2F2"/>
<path d="M15.147 22.856C14.796 22.8556 14.5105 22.5937 14.4974 22.2606C14.497 22.2319 14.4937 22.1557 14.4269 22.1557C14.3988 22.1557 14.375 22.1718 14.3474 22.1956C14.2703 22.2642 14.1722 22.3341 14.0288 22.3341C13.9633 22.3341 13.8928 22.3193 13.8185 22.2902C13.4474 22.1463 13.4423 21.9019 13.4573 21.8037C13.4615 21.7772 13.4629 21.7499 13.4442 21.7288L13.4213 21.7095H13.3984C13.3797 21.7095 13.3601 21.7167 13.3339 21.7346C13.2264 21.8068 13.1236 21.8418 13.0189 21.8418C12.9615 21.8418 12.9026 21.8306 12.8432 21.8086C12.3554 21.6266 12.3942 21.1845 12.418 21.0518C12.4213 21.0244 12.4143 21.0038 12.3965 20.9899L12.3619 20.9625L12.3297 20.9921C12.2348 21.08 12.1101 21.1284 11.9797 21.1284C11.6998 21.128 11.4722 20.9101 11.4727 20.6419C11.4727 20.3734 11.7007 20.1559 11.9801 20.1559C12.2329 20.1559 12.4479 20.3384 12.4801 20.5805L12.4974 20.711L12.5722 20.6007C12.5806 20.5877 12.7853 20.2904 13.1619 20.2909C13.2334 20.2909 13.3073 20.3016 13.382 20.324C13.682 20.4119 13.733 20.6729 13.7409 20.7818C13.746 20.8451 13.7932 20.8482 13.8026 20.8482C13.8283 20.8482 13.8474 20.8325 13.861 20.8186C13.9175 20.7621 14.0409 20.6679 14.2339 20.6679C14.3222 20.6679 14.4166 20.6881 14.5133 20.728C14.9904 20.9244 14.7741 21.506 14.7717 21.5122C14.7306 21.6086 14.7288 21.6512 14.7675 21.6759L14.7862 21.6844H14.8003C14.8217 21.6844 14.8484 21.6755 14.8923 21.6611C14.9573 21.6396 15.0554 21.6073 15.147 21.6073C15.5059 21.6113 15.7984 21.8916 15.7984 22.2323C15.7979 22.5762 15.5059 22.856 15.147 22.856ZM20.2012 20.0528C19.4134 19.3932 17.5928 17.8745 17.0998 17.519C16.818 17.3158 16.626 17.2082 16.4573 17.1603C16.3816 17.1383 16.2764 17.1132 16.1414 17.1132C16.0161 17.1132 15.8816 17.1347 15.7409 17.1777C15.4222 17.2746 15.1049 17.5167 14.7974 17.7508L14.7816 17.7629C14.4956 17.9812 14.2002 18.2068 13.9764 18.2548C13.8788 18.2758 13.7783 18.2866 13.6783 18.2866C13.4273 18.2866 13.2026 18.2171 13.118 18.114C13.104 18.0965 13.1129 18.0691 13.1456 18.0292L13.1502 18.0238L13.8432 17.3073C14.3858 16.7863 14.8984 16.2949 16.0788 16.2689C16.0979 16.2684 16.118 16.268 16.1376 16.268C16.8722 16.2684 17.6063 16.5841 17.6886 16.6204C18.3774 16.9428 19.0886 17.1065 19.8031 17.1069C20.5479 17.1073 21.3166 16.9302 22.1246 16.5733C22.0344 16.5007 21.9405 16.4298 21.8437 16.3603C21.1339 16.6554 20.4578 16.8047 19.8054 16.8047C19.1386 16.8038 18.4732 16.6504 17.8264 16.3478C17.7923 16.3321 16.9816 15.9653 16.1376 15.9649C16.1157 15.9649 16.0932 15.9653 16.0713 15.9658C15.0802 15.9877 14.5217 16.3258 14.146 16.6218C13.7811 16.6303 13.4657 16.7146 13.1858 16.7899C12.9353 16.8563 12.7194 16.9141 12.5087 16.9141C12.4217 16.9141 12.2657 16.9065 12.2516 16.906C12.0096 16.8989 10.7885 16.6119 9.81752 16.259C9.71845 16.3263 9.62312 16.3958 9.53013 16.4666C10.5446 16.8657 11.7792 17.1742 12.1689 17.1984C12.2773 17.2055 12.3928 17.2172 12.5082 17.2172C12.7661 17.2172 13.0231 17.1482 13.2722 17.0813C13.4189 17.0414 13.5811 16.9984 13.7521 16.967C13.7063 17.01 13.661 17.0535 13.6152 17.097L12.9115 17.8279C12.8558 17.8817 12.7353 18.0252 12.8147 18.2014C12.8465 18.2727 12.9105 18.3408 13.0002 18.3987C13.1675 18.5072 13.468 18.5803 13.7474 18.5807C13.853 18.5807 13.9535 18.5704 14.0456 18.5507C14.3404 18.487 14.6502 18.2503 14.9783 18.0001C15.2395 17.801 15.6105 17.5481 15.8951 17.4737C15.9746 17.4531 16.0722 17.44 16.1503 17.44C16.1736 17.4405 16.1961 17.4409 16.2166 17.4441C16.4045 17.4665 16.5858 17.5279 16.9101 17.7615C17.4881 18.1781 20.0456 20.3249 20.0708 20.3465C20.0708 20.3465 20.2353 20.4823 20.2241 20.7069C20.218 20.832 20.1456 20.9432 20.0199 21.0204C19.9106 21.0867 19.7979 21.1204 19.6844 21.1204C19.5134 21.1204 19.3956 21.0432 19.3877 21.0383C19.3783 21.0307 18.5021 20.2599 18.1797 20.0007C18.1283 19.9599 18.0783 19.9232 18.0278 19.9232C18.0012 19.9232 17.9774 19.9339 17.961 19.9537C17.9105 20.0138 17.9671 20.0967 18.0344 20.1514L19.0577 21.1383C19.0577 21.1383 19.1853 21.2531 19.1989 21.4046C19.2073 21.5683 19.1255 21.705 18.9559 21.8118C18.8353 21.888 18.7129 21.927 18.5933 21.927C18.4362 21.927 18.3255 21.8579 18.3012 21.8418L18.1545 21.7028C17.8862 21.4495 17.6091 21.1876 17.4063 21.0253C17.3568 20.9858 17.304 20.9495 17.2535 20.9495C17.2288 20.9495 17.2063 20.958 17.189 20.9755C17.1661 21.0002 17.1498 21.0446 17.2077 21.1181C17.2311 21.1482 17.2591 21.1733 17.2591 21.1733L18.0063 21.9786C18.0124 21.9857 18.1601 22.1543 18.0232 22.322L17.9965 22.3539C17.9746 22.3776 17.9503 22.3996 17.9274 22.4184C17.7998 22.5189 17.6297 22.5296 17.5624 22.5296C17.5264 22.5296 17.4914 22.5265 17.4615 22.5211C17.3876 22.5085 17.3381 22.4888 17.3138 22.4615L17.3049 22.4525C17.2643 22.4121 16.8876 22.0431 16.576 21.7938C16.5353 21.7606 16.4839 21.7189 16.4311 21.7189C16.4049 21.7189 16.3816 21.7288 16.3633 21.7481C16.3017 21.8127 16.3942 21.9095 16.4334 21.9454L17.0708 22.6193C17.0699 22.6251 17.0619 22.639 17.0465 22.6605C17.0236 22.6906 16.9465 22.765 16.7152 22.7928C16.6876 22.7964 16.6591 22.7977 16.6306 22.7977C16.3923 22.7977 16.1381 22.6866 16.0073 22.6202C16.0671 22.4991 16.0979 22.366 16.0979 22.2328C16.0979 21.7293 15.6722 21.3199 15.1479 21.3199C15.1367 21.3199 15.125 21.3199 15.1138 21.3203C15.1306 21.0908 15.097 20.6558 14.6316 20.4644C14.4974 20.4088 14.3638 20.3805 14.2344 20.3805C14.1325 20.3805 14.0348 20.3971 13.9432 20.4307C13.8465 20.2509 13.6867 20.12 13.4778 20.0519C13.3624 20.0138 13.2474 19.994 13.1367 19.994C12.9428 19.994 12.7647 20.0487 12.6054 20.1572C12.453 19.9756 12.2227 19.8676 11.9801 19.8676C11.768 19.8676 11.5638 19.9492 11.4129 20.0931C11.2143 19.9478 10.4278 19.4681 8.32218 19.0094C8.22031 18.9874 7.98667 18.9228 7.84321 18.8829C7.81938 18.9919 7.80115 19.1026 7.789 19.2143C7.789 19.2143 8.17732 19.3035 8.25396 19.3201C10.4049 19.7784 11.1152 20.255 11.2357 20.3451C11.1946 20.4388 11.1736 20.5397 11.1736 20.6419C11.1731 21.0679 11.5348 21.4154 11.9792 21.4158C12.0292 21.4158 12.0787 21.4114 12.1269 21.4028C12.1942 21.7167 12.4082 21.9548 12.7348 22.0768C12.8306 22.1117 12.9273 22.1301 13.0222 22.1301C13.0834 22.1301 13.1456 22.1229 13.2058 22.1081C13.2661 22.2552 13.4021 22.4386 13.7059 22.557C13.8124 22.5982 13.9189 22.6197 14.0222 22.6197C14.1068 22.6197 14.1895 22.6054 14.2685 22.5776C14.4138 22.9179 14.7605 23.143 15.1465 23.143C15.4026 23.1435 15.6484 23.0435 15.8278 22.8664C15.9811 22.9484 16.3049 23.0964 16.632 23.0968C16.6746 23.0968 16.7143 23.0937 16.754 23.0892C17.0792 23.0502 17.2302 22.9278 17.2998 22.8332C17.3124 22.8166 17.3236 22.7991 17.3334 22.7807C17.4101 22.8022 17.4942 22.8193 17.5909 22.8197C17.7685 22.8197 17.939 22.7614 18.111 22.6408C18.2802 22.5242 18.4003 22.3561 18.4176 22.2131C18.418 22.2108 18.4185 22.209 18.419 22.2068C18.4755 22.218 18.5344 22.2238 18.5928 22.2238C18.7755 22.2238 18.9549 22.1691 19.1269 22.0611C19.4582 21.853 19.5157 21.5808 19.5106 21.4024C19.568 21.414 19.6274 21.4199 19.6863 21.4199C19.8578 21.4199 20.0264 21.3706 20.1867 21.2724C20.3923 21.1464 20.5157 20.9536 20.5344 20.7289C20.5475 20.5765 20.5082 20.4227 20.4241 20.2904C20.9793 20.0608 22.2479 19.6169 23.7419 19.2937C23.733 19.1825 23.7162 19.0726 23.6956 18.9632C21.8881 19.3484 20.5391 19.9084 20.2012 20.0528Z" fill="#393B43"/>
<path d="M51.3525 18.2889C51.2072 18.4741 50.9992 18.5664 50.7273 18.5664C50.4558 18.5664 50.2464 18.4741 50.1002 18.2889C49.9534 18.1037 49.8805 17.84 49.8805 17.4988C49.8805 17.1576 49.9534 16.8949 50.1002 16.7106C50.2464 16.5267 50.4558 16.4344 50.7273 16.4344C50.9992 16.4344 51.2072 16.5267 51.3525 16.7106C51.4978 16.8949 51.5712 17.1576 51.5712 17.4988C51.5712 17.84 51.4978 18.1037 51.3525 18.2889ZM52.0955 16.2214C51.7955 15.8613 51.3408 15.6811 50.7301 15.6811C50.1203 15.6811 49.6651 15.8613 49.3656 16.2214C49.0656 16.5819 48.9156 17.0074 48.9156 17.4988C48.9156 17.9988 49.0656 18.4261 49.3656 18.7816C49.6651 19.1359 50.1203 19.3139 50.7301 19.3139C51.3408 19.3139 51.7955 19.1359 52.0955 18.7816C52.3955 18.4261 52.545 17.9988 52.545 17.4988C52.545 17.0074 52.3955 16.5819 52.0955 16.2214Z" fill="#F2F2F2"/>
<path d="M43.9627 17.8679C43.9566 18.1669 43.8674 18.3732 43.6959 18.4857C43.5244 18.5987 43.337 18.6557 43.1337 18.6557C43.0052 18.6557 42.8964 18.6211 42.8066 18.5534C42.7169 18.4853 42.6725 18.375 42.6725 18.2221C42.6725 18.0512 42.7454 17.9248 42.8922 17.8427C42.9795 17.7952 43.1216 17.754 43.3207 17.7212L43.5328 17.6836C43.6384 17.6643 43.7216 17.6437 43.7823 17.6217C43.844 17.6002 43.9034 17.5715 43.9627 17.5356V17.8679ZM44.4351 15.9201C44.1309 15.7726 43.7833 15.6977 43.3917 15.6977C42.7898 15.6977 42.365 15.8483 42.1178 16.1492C41.9622 16.342 41.8753 16.5873 41.8548 16.8864H42.7538C42.7763 16.7545 42.8202 16.6501 42.8865 16.5729C42.9795 16.4685 43.137 16.416 43.3599 16.416C43.559 16.416 43.7099 16.442 43.8127 16.4963C43.9151 16.5492 43.9665 16.646 43.9665 16.7859C43.9665 16.9011 43.9001 16.9854 43.7655 17.0401C43.6908 17.0715 43.5669 17.0975 43.3931 17.1186L43.0744 17.1563C42.7127 17.1998 42.4375 17.2733 42.2515 17.376C41.9108 17.5643 41.7412 17.8679 41.7412 18.2884C41.7412 18.6122 41.8464 18.8628 42.058 19.0395C42.2693 19.2161 42.5379 19.2901 42.8622 19.3049C44.8954 19.3919 44.8725 18.2768 44.8912 18.0445V16.7608C44.8912 16.3492 44.7389 16.069 44.4351 15.9201Z" fill="#F2F2F2"/>
<path d="M39.7988 16.4623C40.0315 16.4623 40.202 16.5313 40.3123 16.669C40.388 16.7708 40.4352 16.886 40.4534 17.0134H41.4567C41.4016 16.5278 41.2245 16.1888 40.9254 15.9964C40.6254 15.8054 40.2418 15.709 39.7721 15.709C39.2193 15.709 38.7857 15.8718 38.4721 16.1969C38.1581 16.5224 38.0011 16.977 38.0011 17.5617C38.0011 18.0792 38.1432 18.5011 38.4273 18.8266C38.7114 19.1512 39.1548 19.314 39.7576 19.314C40.3609 19.314 40.8161 19.1194 41.1231 18.7293C41.3151 18.4876 41.4231 18.2312 41.446 17.9603H40.4464C40.4259 18.1392 40.3675 18.2854 40.2707 18.398C40.1745 18.51 40.0119 18.5665 39.7819 18.5665C39.4586 18.5665 39.238 18.4253 39.1207 18.141C39.0567 17.9899 39.0245 17.7895 39.0245 17.5398C39.0245 17.2779 39.0567 17.0681 39.1207 16.9098C39.2427 16.6121 39.4689 16.4623 39.7988 16.4623Z" fill="#F2F2F2"/>
<path d="M37.7323 15.709C35.672 15.709 35.794 17.4595 35.794 17.4595V19.2373H36.7286V17.5698C36.7286 17.2967 36.7645 17.0941 36.836 16.9627C36.9641 16.7295 37.215 16.6125 37.5888 16.6125C37.6169 16.6125 37.6538 16.6138 37.6996 16.6161C37.7449 16.6179 37.7968 16.6219 37.8561 16.6286V15.7157C37.8145 15.7131 37.7879 15.7122 37.7762 15.7108C37.7641 15.7099 37.7496 15.709 37.7323 15.709Z" fill="#F2F2F2"/>
<path d="M33.0411 16.6381C33.1728 16.5085 33.3574 16.4435 33.5953 16.4435C33.8149 16.4435 33.9981 16.5044 34.1462 16.6273C34.2939 16.7493 34.3766 16.9291 34.3934 17.1654H32.7939C32.827 16.9434 32.9098 16.7681 33.0411 16.6381ZM34.2976 18.3083C34.2584 18.3621 34.2163 18.4083 34.1696 18.4441C34.0378 18.5486 33.8584 18.58 33.6471 18.58C33.4471 18.58 33.2911 18.5509 33.1495 18.4652C32.9163 18.328 32.785 18.0953 32.771 17.7532H35.3579C35.3616 17.459 35.3514 17.234 35.3266 17.077C35.2836 16.8102 35.1892 16.5748 35.0439 16.3726C34.8827 16.143 34.6775 15.9749 34.4299 15.8682C34.1827 15.7619 33.9046 15.709 33.5953 15.709C33.0742 15.709 32.6513 15.8664 32.3252 16.1812C31.999 16.4964 31.8354 16.9488 31.8354 17.5389C31.8354 18.1693 32.0163 18.6239 32.378 18.9033C32.7392 19.1826 33.1565 19.323 33.6289 19.323C34.2013 19.323 34.6467 19.1571 34.9649 18.8257C35.1364 18.6513 35.2439 18.4787 35.2892 18.3083H34.2976Z" fill="#F2F2F2"/>
<path d="M31.4605 19.2369H30.6063V17.1734C30.6063 16.9851 30.5418 16.5367 29.9782 16.5367C29.6025 16.5367 29.331 16.7968 29.331 17.1734V19.2369H28.4763V17.1734C28.4763 16.9851 28.4179 16.5367 27.8548 16.5367C27.4726 16.5367 27.2072 16.7968 27.2072 17.1734V19.2369H26.353V17.1931C26.353 16.3412 26.9418 15.6969 27.8548 15.6969C28.3081 15.6969 28.6768 15.8798 28.9165 16.1726C29.1689 15.8798 29.5441 15.6969 29.9782 15.6969C30.9105 15.6969 31.4605 16.3152 31.4605 17.1931V19.2369Z" fill="#F2F2F2"/>
<path d="M47.5161 18.2962C47.3797 18.4841 47.1792 18.5778 46.9166 18.5778C46.6535 18.5778 46.4577 18.4832 46.3287 18.2948C46.1997 18.1056 46.1353 17.8312 46.1353 17.5164C46.1353 17.2246 46.1983 16.9802 46.3254 16.7833C46.4521 16.5865 46.6511 16.4879 46.9231 16.4879C47.1011 16.4879 47.2577 16.5417 47.3927 16.6502C47.6119 16.8295 47.7217 17.151 47.7217 17.568C47.7217 17.8657 47.653 18.1088 47.5161 18.2962ZM48.6376 14.6316C48.6376 14.6316 47.6955 14.5352 47.6955 15.2611L47.6951 16.222C47.5909 16.0615 47.4554 15.9355 47.2881 15.8453C47.1212 15.7548 46.9301 15.709 46.7142 15.709C46.2474 15.709 45.875 15.8758 45.5955 16.2094C45.3161 16.543 45.1773 17.0237 45.1773 17.6052C45.1773 18.1097 45.3189 18.5231 45.6021 18.8454C45.8857 19.1669 46.4418 19.3082 46.9353 19.3082C48.6568 19.3082 48.6367 17.8913 48.6367 17.8913L48.6376 14.6316Z" fill="#F2F2F2"/>
<path d="M28.8544 22.5032C28.8544 22.1652 28.7857 21.9051 28.6478 21.7226C28.5105 21.541 28.3137 21.4491 28.0567 21.4491C27.81 21.4491 27.617 21.541 27.4791 21.7226C27.3516 21.8876 27.2876 22.1486 27.2876 22.5032C27.2876 22.8341 27.3558 23.0803 27.4936 23.2453C27.6305 23.4278 27.8282 23.5188 28.0843 23.5188C28.3226 23.5188 28.5105 23.4278 28.6478 23.2453C28.7857 23.0633 28.8544 22.8167 28.8544 22.5032ZM27.2876 24.9308C27.2876 25.0518 27.2418 25.1563 27.1492 25.2428C27.0581 25.3298 26.9483 25.3733 26.8198 25.3733H26.353V22.2557C26.353 21.6495 26.5656 21.2702 26.9161 21.0133C27.1478 20.8438 27.4927 20.6819 28.1394 20.6819C28.5759 20.6819 29.0871 20.8447 29.3633 21.1675C29.6731 21.5307 29.802 21.9356 29.802 22.4642C29.802 23.0113 29.6647 23.4525 29.3904 23.7919C29.1156 24.1219 28.7623 24.286 28.3315 24.286C28.1025 24.286 27.9011 24.247 27.7273 24.1694C27.5432 24.0824 27.3974 23.9479 27.2876 23.7654V24.9308Z" fill="#BEBEBE"/>
<path d="M34.4576 22.5037C34.4576 23.1018 34.638 23.4332 34.9978 23.4986C35.3572 23.5627 35.6231 23.4825 35.7941 23.2574C35.8754 23.1628 35.9333 23.0126 35.9698 22.8095C36.0053 22.6059 36.0081 22.4041 35.9763 22.205C35.9455 22.0051 35.8707 21.8275 35.7534 21.6715C35.6371 21.5159 35.4656 21.4374 35.2408 21.4374C34.9347 21.4374 34.7282 21.5464 34.6198 21.762C34.5114 21.9791 34.4576 22.2261 34.4576 22.5037ZM35.9969 23.9986V23.7784C35.8352 24.0214 35.6161 24.1721 35.3418 24.2331C35.0675 24.2936 34.795 24.2721 34.5259 24.1676C34.2553 24.064 34.0235 23.8712 33.8301 23.5896C33.6366 23.3072 33.5403 22.9368 33.5403 22.4772C33.5403 21.9405 33.6684 21.5047 33.9245 21.1711C34.181 20.8375 34.5932 20.685 35.16 20.6702C35.7184 20.6559 36.0432 20.7774 36.3614 21.0083C36.709 21.2617 36.9147 21.65 36.9147 22.2566V24.0905C36.9161 24.6738 36.4918 25.7553 35.16 25.6639C34.3347 25.6065 33.8768 25.2814 33.6212 24.5456H34.6067C34.6787 24.6667 34.7885 24.7595 34.9375 24.824C35.0852 24.8899 35.2347 24.907 35.3819 24.8765C35.5305 24.846 35.6656 24.7613 35.788 24.6232C35.909 24.4846 35.9787 24.2761 35.9969 23.9986Z" fill="#BEBEBE"/>
<path d="M32.268 22.8656C32.2619 23.1646 32.1726 23.3704 32.0016 23.4834C31.8301 23.596 31.6427 23.6525 31.4394 23.6525C31.3105 23.6525 31.2016 23.6184 31.1123 23.5507C31.0226 23.483 30.9778 23.3722 30.9778 23.2193C30.9778 23.0485 31.0511 22.9221 31.1979 22.8405C31.2852 22.7925 31.4273 22.7512 31.6259 22.7185L31.838 22.6808C31.9441 22.6616 32.0273 22.6409 32.0876 22.619C32.1493 22.5974 32.2086 22.5692 32.268 22.5333V22.8656ZM32.7404 20.9178C32.4362 20.7703 32.0885 20.6954 31.6974 20.6954C31.0951 20.6954 30.6707 20.8461 30.4231 21.1469C30.2679 21.3393 30.1806 21.5845 30.1605 21.8841H31.06C31.082 21.7518 31.1259 21.6473 31.1922 21.5702C31.2852 21.4657 31.4427 21.4137 31.6651 21.4137C31.8651 21.4137 32.0156 21.4397 32.118 21.4935C32.2203 21.5469 32.2722 21.6437 32.2722 21.7836C32.2722 21.8984 32.2053 21.9832 32.0712 22.0379C31.9969 22.0692 31.8726 22.0952 31.6988 22.1163L31.3801 22.1535C31.0184 22.1975 30.7432 22.271 30.5572 22.3732C30.2165 22.5616 30.0464 22.8656 30.0464 23.2857C30.0464 23.6094 30.1521 23.8601 30.3637 24.0367C30.575 24.2129 30.8436 24.2878 31.1679 24.3022C33.2002 24.3892 33.1778 23.2736 33.1965 23.0418V21.7581C33.1965 21.3465 33.0446 21.0667 32.7404 20.9178Z" fill="#BEBEBE"/>
<path d="M39.7083 23.2669C39.5629 23.4525 39.3545 23.5449 39.083 23.5449C38.8111 23.5449 38.6017 23.4525 38.4559 23.2669C38.3087 23.0822 38.2358 22.819 38.2358 22.4777C38.2358 22.1365 38.3087 21.8738 38.4559 21.6895C38.6017 21.5052 38.8111 21.4137 39.083 21.4137C39.3545 21.4137 39.5629 21.5052 39.7083 21.6895C39.8536 21.8738 39.9265 22.1365 39.9265 22.4777C39.9265 22.819 39.8536 23.0822 39.7083 23.2669ZM40.4513 21.2003C40.1513 20.8398 39.6961 20.66 39.0854 20.66C38.476 20.66 38.0204 20.8398 37.7209 21.2003C37.4209 21.5604 37.2709 21.9859 37.2709 22.4777C37.2709 22.9777 37.4209 23.4045 37.7209 23.7601C38.0204 24.1143 38.476 24.2923 39.0854 24.2923C39.6961 24.2923 40.1513 24.1143 40.4513 23.7601C40.7508 23.4045 40.8999 22.9777 40.8999 22.4777C40.8999 21.9859 40.7508 21.5604 40.4513 21.2003Z" fill="#BEBEBE"/>
</svg>
