<svg width="60" height="40" viewBox="0 0 60 40" fill="none" xmlns="http://www.w3.org/2000/svg">
<path d="M29.3454 13.3912L27.1917 26.6178H23.7469L25.9006 13.3912H29.3454Z" fill="#BEBEBE"/>
<path d="M20.849 13.3912L17.5649 22.4903L17.1765 20.5311L17.177 20.5322L16.0178 14.5825C16.0178 14.5825 15.8775 13.3912 14.384 13.3912H8.95572L8.89258 13.615C8.89258 13.615 10.553 13.9595 12.4952 15.1277L15.4879 26.6218H19.077L24.5566 13.3912H20.8468H20.849Z" fill="#BEBEBE"/>
<path d="M47.9452 26.6178H51.1075L48.35 13.3872H45.5801C44.3014 13.3872 43.9901 14.3727 43.9901 14.3727L38.8534 26.6178H42.4431L43.1614 24.6525H47.5398L47.9401 26.6201L47.9452 26.6178ZM44.1565 21.9383L45.9663 16.9871L46.9845 21.9383H44.1514H44.1565Z" fill="#BEBEBE"/>
<path d="M39.1218 16.571L39.6134 13.7294C39.6134 13.7294 38.0968 13.1527 36.5154 13.1527C34.8059 13.1527 30.7472 13.9003 30.7472 17.5323C30.7472 20.9506 35.5112 20.9934 35.5112 22.788C35.5112 24.5825 31.2377 24.2623 29.8282 23.1291L29.3157 26.0997C29.3157 26.0997 30.8537 26.8473 33.2036 26.8473C35.5541 26.8473 39.1004 25.6295 39.1004 22.3178C39.1004 18.878 34.294 18.5578 34.294 17.062C34.2996 15.5567 37.6542 15.7484 39.1257 16.5603L39.1218 16.571Z" fill="#BEBEBE"/>
<path d="M17.1787 20.5288L16.0195 14.5791C16.0195 14.5791 15.8791 13.3878 14.3856 13.3878H8.95737L8.89423 13.6116C8.89423 13.6116 11.5035 14.1523 14.0062 16.178C16.4023 18.1118 17.1803 20.5249 17.1803 20.5249L17.1787 20.5288Z" fill="#F2F2F2"/>
</svg>
